<?xml version="1.0" encoding="UTF-8"?>
<svg xmlns="http://www.w3.org/2000/svg" version="1.1" viewBox="0 0 1024 1024">
  <!-- Generator: Adobe Illustrator 29.8.2, SVG Export Plug-In . SVG Version: 2.1.1 Build 3)  -->
  <defs>
    <style>
      .st0 {
        fill: #fff;
      }

      .st1 {
        fill: none;
      }

      .st2 {
        fill: #059669;
      }
    </style>
  </defs>
  <g id="Layer_2">
    <path class="st2" d="M1020.02,879.8l-403.03-336.03c-24.54-21.58-59.37-29.41-88.19-11.43l-144.58,116.63v-111.37c0-1.59-4.71-9.11-6.81-10.42-8.41-5.22-101.91-5.94-116.9-3.96-15.69,2.07-20.45,11.53-22.17,26.43-7.93,68.95,6.74,151.59-.67,222.07-41.02,39.46-89.81,71.09-128.83,112.13v12.15c24.46,14,37.41,68.21,70.19,43.89l385.4-319.42,387.14,321.8c30.53,17.13,45.21-33.77,68.45-46.27v-16.2Z"/>
    <polygon class="st2" points="239.83 1024.34 884.98 1024.34 884.27 932.54 563.73 669.8 240.53 936.58 239.83 1024.34"/>
    <line class="st1" x1="239.83" y1="1024.34" x2="194.29" y2="1024.34"/>
    <path class="st2" d="M608.95,272.34c5.96,17.44,10.53,35.48,11.84,53.98,5.65,79.45-39.32,162.58-121.3,178.91-39.34,7.84-83.72,2.61-115.87-22.79-19.49,13.09-33.63,32.6-46.84,51.68-7.56-1.7-22.96-16.29-22.05-24.07.31-2.65,12.33-15.07,15-17.87,49.79-51.99,90.88-60.57,154.83-84.68,36.45-13.75,68.84-33.17,90.31-66.79.43-1.95-.68-.61-1.23-.07-21.65,21.21-32.67,31.87-62.14,42.7-47.8,17.57-94.08,19.43-139.63,46.99-2.29,1.38-12.74,9.21-13.66,9.43-1.18.29-.83-.58-1-1.01-8.17-20.31-3.86-48.87,5.38-68.14,21.22-44.19,62.37-57.65,107.87-62.93,44.01-5.11,92.2.39,129.31-28.25,2.26-1.74,5.23-5.3,7.42-6.71.65-.42.87-.74,1.76-.39Z"/>
    <line class="st1" x1="922.19" y1="1024.34" x2="884.98" y2="1024.34"/>
    <path class="st2" d="M47.28,104.79c-13.31,20.36-25.02,41.94-32.73,65.15-33.11,99.74-2.69,220.67,96.8,268.26,47.74,22.84,106.19,30.61,155.57,8.61,20.65,23.09,32.37,52.63,43.04,81.33,10.21.29,34.66-13.34,36.03-23.59.47-3.49-10.85-23.29-13.36-27.74-46.72-82.7-96.45-107.04-170.36-158.71-42.13-29.45-77.21-64.84-93.7-114.81.09-2.63,1.07-.56,1.6.31,20.77,34.18,31.39,51.39,65.53,74.84,55.38,38.03,113.95,55.49,163.21,105.57,2.47,2.51,13.29,15.92,14.39,16.51,1.41.76,1.25-.47,1.61-.97,17.06-23.31,20.86-61.23,15.32-88.87-12.73-63.41-60.96-94.03-117.41-115.6-54.6-20.86-118.01-29.54-156.12-78.24-2.32-2.97-4.96-8.48-7.3-10.99-.7-.75-.87-1.23-2.13-1.07Z"/>
  </g>
  <g id="Layer_3">
    <path class="st0" d="M543.85,830.47l17.88-18.43c25.7-25.01,72.14-22.61,105.04-7.27l-23.94,53.78c-44.07-20.48-78.47-10.25-88.49,27.78-11.85,45-.51,97.64-4.55,143.66h-83.16v-230.56h77.22v31.04Z"/>
  </g>
</svg>